<svg height="512" viewBox="0 0 128 128" width="512" xmlns="http://www.w3.org/2000/svg"><circle cx="64" cy="64" fill="#ef5261" r="64" data-name="Circle Grid"/><path d="M94.067 38.033v64.233A2.733 2.733 0 0 1 91.333 105H36.667a2.733 2.733 0 0 1-2.733-2.733V25.733A2.733 2.733 0 0 1 36.667 23h42.366z" fill="#eeefee"/><path d="M44.696 64h38.267v31.604H44.696z" fill="#f6c863"/><g fill="#eab54e"><path d="M83.019 97.142H44.981a1.367 1.367 0 0 1-1.367-1.367V64a1.367 1.367 0 0 1 1.367-1.367h38.038A1.367 1.367 0 0 1 84.386 64v31.775a1.367 1.367 0 0 1-1.367 1.367zm-36.672-2.734h35.306V65.367H46.347z"/><path d="M83.019 76.186H57a1.367 1.367 0 0 1-1.367-1.367V64A1.367 1.367 0 0 1 57 62.633h26.019A1.367 1.367 0 0 1 84.386 64v10.819a1.367 1.367 0 0 1-1.367 1.367zm-24.656-2.733h23.29v-8.086h-23.29z"/><path d="M70.008 76.186a1.367 1.367 0 0 1-1.367-1.367V64a1.367 1.367 0 1 1 2.733 0v10.819a1.367 1.367 0 0 1-1.366 1.367zM83.019 86.892H44.981a1.367 1.367 0 0 1 0-2.733h38.038a1.367 1.367 0 0 1 0 2.733z"/><path d="M70.321 97.142a1.367 1.367 0 0 1-1.367-1.367v-10.25a1.367 1.367 0 1 1 2.733 0v10.25a1.367 1.367 0 0 1-1.366 1.367zM57.679 97.142a1.367 1.367 0 0 1-1.367-1.367v-10.25a1.367 1.367 0 0 1 2.733 0v10.25a1.367 1.367 0 0 1-1.366 1.367z"/></g></svg>